<?xml version="1.0" encoding="UTF-8" standalone="no"?>
<svg
   width="258.00006"
   height="176.56499"
   viewBox="0 0 258.00006 176.56499"
   fill="none"
   version="1.1"
   id="svg195"
   sodipodi:docname="rect2.svg"
   inkscape:export-filename="stan.svg"
   inkscape:export-xdpi="93.571671"
   inkscape:export-ydpi="93.571671"
   xmlns:inkscape="http://www.inkscape.org/namespaces/inkscape"
   xmlns:sodipodi="http://sodipodi.sourceforge.net/DTD/sodipodi-0.dtd"
   xmlns="http://www.w3.org/2000/svg"
   xmlns:svg="http://www.w3.org/2000/svg">
  <sodipodi:namedview
     id="namedview780"
     pagecolor="#ffffff"
     bordercolor="#cccccc"
     borderopacity="1"
     inkscape:showpageshadow="0"
     inkscape:pageopacity="1"
     inkscape:pagecheckerboard="0"
     inkscape:deskcolor="#d1d1d1"
     showgrid="false" />
  <g
     clip-path="url(#clip0_25_2)"
     id="g182"
     transform="translate(-167.49997,-177.435)">
    <path
       d="m 167.5,330.609 h 258 v 0.129 h -258 z"
       fill="#e0e0e0"
       id="path8" />
    <path
       d="m 230.627,336.094 h 17.751 v 0.129 h -17.751 z"
       fill="#e0e0e0"
       id="path10" />
    <path
       d="m 368.203,336.156 h 9.99 v 0.129 h -9.99 z"
       fill="#e0e0e0"
       id="path12" />
    <path
       d="m 295.984,335.856 h 20.248 v 0.129 h -20.248 z"
       fill="#e0e0e0"
       id="path14" />
    <path
       d="m 316.748,334.012 h 9.05 v 0.129 h -9.05 z"
       fill="#e0e0e0"
       id="path16" />
    <path
       d="m 206.427,334.074 h 27.343 v 0.129 h -27.343 z"
       fill="#e0e0e0"
       id="path18" />
    <path
       d="m 198.816,265.775 c 6.352,-9.702 0.552,-20.129 1.517,-30.918 0.965,-10.789 11.182,-13.146 9.247,-22.293 -2.24,-10.603 3.725,-20.786 10.49,-20.786 6.765,0 12.735,10.183 10.49,20.786 -1.935,9.147 8.282,11.504 9.247,22.293 0.965,10.789 -4.83,21.221 1.517,30.918 6.352,9.701 4.685,22.547 1.104,28.923 -0.985,1.756 -2.146,3.31 -3.41,4.687 -10.155,11.038 -27.746,11.038 -37.901,0 -1.264,-1.377 -2.425,-2.931 -3.41,-4.687 -3.581,-6.376 -5.248,-19.227 1.104,-28.923 z"
       fill="#e0e0e0"
       id="path20" />
    <path
       d="m 220.075,273.135 c -1.77,0 -3.209,1.445 -3.209,3.222 v 54.246 h 6.419 v -54.246 c 0,-1.777 -1.44,-3.222 -3.21,-3.222 z"
       fill="#f0f0f0"
       id="path22" />
    <path
       d="m 260.426,330.609 h 8.741 v -54.247 c 0,-2.414 -1.965,-4.387 -4.37,-4.387 -2.405,0 -4.371,1.973 -4.371,4.387 z"
       fill="#e0e0e0"
       id="path24" />
    <path
       d="m 264.797,315.976 c -14.867,0 -26.92,-12.098 -26.92,-27.022 0,-14.924 12.053,-27.023 26.92,-27.023 14.867,0 26.92,12.099 26.92,27.023 0,14.924 -12.053,27.022 -26.92,27.022 z"
       fill="#f0f0f0"
       id="path26" />
    <path
       d="m 233.169,280.845 c -1.413,-5.708 2.052,-11.485 7.738,-12.902 5.687,-1.418 11.442,2.06 12.854,7.768 1.413,5.708 -2.052,11.484 -7.738,12.902 -5.687,1.418 -11.442,-2.06 -12.854,-7.768 z"
       fill="#f0f0f0"
       id="path28" />
    <path
       d="m 280.372,272.983 c -0.557,-3.436 1.766,-6.675 5.189,-7.235 3.423,-0.56 6.65,1.772 7.207,5.208 0.558,3.436 -1.765,6.676 -5.188,7.235 -3.424,0.56 -6.65,-1.772 -7.208,-5.208 z"
       fill="#f0f0f0"
       id="path30" />
    <path
       d="m 279.74,273.135 c -2.433,0 -4.406,-1.981 -4.406,-4.424 0,-2.443 1.973,-4.423 4.406,-4.423 2.434,0 4.407,1.98 4.407,4.423 0,2.443 -1.973,4.424 -4.407,4.424 z"
       fill="#f0f0f0"
       id="path32" />
    <path
       d="m 320.251,298.23 c 4.485,0.669 8.365,2.3 11.724,4.491 0.031,-4.097 0.779,-7.992 2.699,-11.136 2.92,2.859 5.289,6.557 7.203,10.53 0.717,-7.474 2.673,-14.72 7.002,-19.294 6.486,4.097 9.83,10.924 11.419,18.155 2.585,-4.631 6.151,-8.909 11.074,-12.017 3.968,4.195 5.237,9.997 5.129,15.943 4.509,-5.268 9.515,-9.386 14.396,-9.867 1.202,8.344 -1.357,16.217 -4.608,22.422 -4.267,8.138 -12.755,13.157 -21.914,13.157 h -21.203 c -9.035,0 -17.508,-4.838 -21.744,-12.851 -2.683,-5.071 -3.963,-11.608 -1.177,-19.527 z"
       fill="#e0e0e0"
       id="path34" />
    <path
       d="m 326.294,190.623 c -2.621,-7.703 -0.542,-13.188 5.862,-13.188 4.014,0 8.993,2.16 13.844,5.672 0.547,-2.005 2.09,-3.206 4.572,-3.206 4.37,0 10.392,3.708 15.113,8.945 1.146,-1.165 2.797,-1.88 4.923,-1.994 4.18,-0.238 9.247,1.896 13.648,5.361 0.382,-0.58 1.037,-0.943 1.94,-1 2.41,-0.135 5.671,2.015 7.291,4.802 0.104,0.176 0.191,0.341 0.279,0.512 h -68.747 c -0.206,-2.429 0.222,-4.459 1.27,-5.91 z"
       fill="#f0f0f0"
       id="path36" />
    <path
       d="m 326.082,237.39 c -1.279,-3.761 -0.263,-6.444 2.864,-6.444 1.961,0 4.396,1.057 6.765,2.772 0.268,-0.979 1.022,-1.565 2.234,-1.565 2.136,0 5.078,1.813 7.384,4.367 0.557,-0.57 1.367,-0.917 2.405,-0.974 2.043,-0.114 4.515,0.927 6.666,2.621 0.186,-0.285 0.506,-0.461 0.945,-0.487 1.176,-0.067 2.771,0.984 3.56,2.346 0.052,0.088 0.093,0.166 0.139,0.249 h -33.581 c -0.098,-1.186 0.108,-2.175 0.619,-2.885 z"
       fill="#f0f0f0"
       id="path38" />
    <path
       d="m 248.631,208.933 c 0.263,-0.037 0.526,-0.057 0.794,-0.057 -0.247,-3.761 1.187,-6.159 4.242,-6.159 2.203,0 4.912,1.254 7.673,3.372 -0.79,-7.293 1.739,-12.037 7.461,-12.037 4.618,0 10.465,3.081 16.239,8.116 0.505,-2.864 2.208,-4.579 5.067,-4.579 5.02,0 12.157,5.299 17.879,12.779 0,0 0,0.01 0.005,0 1.239,-1.668 3.091,-2.699 5.537,-2.865 4.783,-0.337 10.717,2.709 15.981,7.671 0.402,-0.839 1.13,-1.357 2.172,-1.424 2.616,-0.181 6.218,2.553 8.313,6.215 h -95.569 c -2.244,-5.552 -0.454,-10.406 4.211,-11.032 z"
       fill="#f0f0f0"
       id="path40" />
    <path
       d="m 296.5,354 c -55.255,0 -100.047,-2.625 -100.047,-5.863 0,-3.239 44.792,-5.864 100.047,-5.864 55.255,0 100.047,2.625 100.047,5.864 0,3.238 -44.792,5.863 -100.047,5.863 z"
       fill="#f5f5f5"
       id="path42" />
    <path
       d="m 400.288,210.523 -117.632,16.994 -15.785,15.995 z"
       fill="#407bff"
       id="path44" />
    <path
       opacity="0.6"
       d="m 400.288,210.523 -117.632,16.994 -15.785,15.995 z"
       fill="#ffffff"
       id="path46" />
    <path
       d="m 400.288,210.523 -117.632,16.994 5.459,23.128 z"
       fill="#407bff"
       id="path48" />
    <path
       opacity="0.2"
       d="m 400.288,210.523 -117.632,16.994 5.459,23.128 z"
       fill="#000000"
       id="path50" />
    <path
       d="m 290.53,183.749 -6.832,32.13 c -0.371,1.74 0.743,3.465 2.477,3.838 l 60.929,13.053 c 1.734,0.373 3.452,-0.746 3.824,-2.487 l 6.832,-32.129 c 0.19,-0.912 -0.021,-1.818 -0.516,-2.528 -0.455,-0.647 -1.141,-1.129 -1.966,-1.31 l -60.93,-13.053 c -0.825,-0.176 -1.651,-0.016 -2.327,0.388 -0.738,0.446 -1.305,1.192 -1.496,2.098 z"
       fill="#407bff"
       id="path52" />
    <path
       opacity="0.4"
       d="m 290.53,183.749 -6.832,32.13 c -0.371,1.74 0.743,3.465 2.477,3.838 l 60.929,13.053 c 1.734,0.373 3.452,-0.746 3.824,-2.487 l 6.832,-32.129 c 0.19,-0.912 -0.021,-1.818 -0.516,-2.528 -0.455,-0.647 -1.141,-1.129 -1.966,-1.31 l -60.93,-13.053 c -0.825,-0.176 -1.651,-0.016 -2.327,0.388 -0.738,0.446 -1.305,1.192 -1.496,2.098 z"
       fill="#000000"
       id="path54" />
    <path
       d="m 292.031,181.651 20.362,25.086 c 3.89,4.791 10.573,6.226 16.073,3.444 l 28.788,-14.56 c -0.454,-0.647 -1.141,-1.129 -1.966,-1.31 l -60.929,-13.053 c -0.826,-0.176 -1.652,-0.016 -2.328,0.388 z"
       fill="#407bff"
       id="path56" />
    <path
       d="m 400.288,210.523 -97.023,23.143 -15.15,16.979 z"
       fill="#407bff"
       id="path58" />
    <path
       opacity="0.6"
       d="m 400.288,210.523 -97.023,23.143 -15.15,16.979 z"
       fill="#ffffff"
       id="path60" />
    <path
       d="m 364.903,232.835 0.261,0.447 -10.797,6.349 -0.261,-0.447 z"
       fill="#407bff"
       id="path62" />
    <path
       d="m 349.334,241.983 0.261,0.447 -3.883,2.283 -0.261,-0.447 z"
       fill="#407bff"
       id="path64" />
    <path
       d="m 400.288,210.523 -97.023,23.143 18.86,22.821 z"
       fill="#407bff"
       id="path66" />
    <path
       d="m 270.514,264.754 c 0.124,0 0.253,-0.026 0.382,-0.072 l 15.805,-6.283 c 0.532,-0.213 0.79,-0.814 0.578,-1.347 -0.211,-0.534 -0.805,-0.793 -1.342,-0.58 l -15.805,6.283 c -0.531,0.212 -0.789,0.813 -0.578,1.346 0.16,0.41 0.547,0.653 0.96,0.653 z"
       fill="#407bff"
       id="path68" />
    <path
       opacity="0.3"
       d="m 270.514,264.754 c 0.124,0 0.253,-0.026 0.382,-0.072 l 15.805,-6.283 c 0.532,-0.213 0.79,-0.814 0.578,-1.347 -0.211,-0.534 -0.805,-0.793 -1.342,-0.58 l -15.805,6.283 c -0.531,0.212 -0.789,0.813 -0.578,1.346 0.16,0.41 0.547,0.653 0.96,0.653 z"
       fill="#000000"
       id="path70" />
    <path
       d="m 271.448,255.653 c 0.124,0 0.253,-0.025 0.382,-0.072 l 8.488,-3.372 c 0.532,-0.212 0.79,-0.813 0.578,-1.347 -0.211,-0.533 -0.805,-0.792 -1.341,-0.58 l -8.489,3.372 c -0.531,0.212 -0.789,0.813 -0.578,1.347 0.16,0.409 0.547,0.652 0.96,0.652 z"
       fill="#407bff"
       id="path72" />
    <path
       opacity="0.5"
       d="m 271.448,255.653 c 0.124,0 0.253,-0.025 0.382,-0.072 l 8.488,-3.372 c 0.532,-0.212 0.79,-0.813 0.578,-1.347 -0.211,-0.533 -0.805,-0.792 -1.341,-0.58 l -8.489,3.372 c -0.531,0.212 -0.789,0.813 -0.578,1.347 0.16,0.409 0.547,0.652 0.96,0.652 z"
       fill="#ffffff"
       id="path74" />
    <path
       d="m 289.193,264.599 c 0.124,0 0.253,-0.026 0.382,-0.073 l 15.413,-6.127 c 0.532,-0.213 0.79,-0.814 0.578,-1.347 -0.211,-0.534 -0.81,-0.793 -1.341,-0.58 l -15.413,6.127 c -0.532,0.213 -0.79,0.814 -0.578,1.347 0.16,0.409 0.547,0.653 0.959,0.653 z"
       fill="#407bff"
       id="path76" />
    <path
       opacity="0.3"
       d="m 289.193,264.599 c 0.124,0 0.253,-0.026 0.382,-0.073 l 15.413,-6.127 c 0.532,-0.213 0.79,-0.814 0.578,-1.347 -0.211,-0.534 -0.81,-0.793 -1.341,-0.58 l -15.413,6.127 c -0.532,0.213 -0.79,0.814 -0.578,1.347 0.16,0.409 0.547,0.653 0.959,0.653 z"
       fill="#000000"
       id="path78" />
    <path
       d="m 233.393,217.909 c -1.367,2.678 -2.621,5.361 -3.813,8.106 -1.182,2.746 -2.307,5.527 -3.271,8.438 l -0.351,1.103 c -0.057,0.197 -0.15,0.518 -0.202,0.746 -0.046,0.238 -0.098,0.487 -0.129,0.705 -0.134,0.901 -0.16,1.719 -0.175,2.517 -0.026,1.595 0.083,3.118 0.217,4.636 0.289,3.025 0.758,5.967 1.403,8.919 l 2.828,-0.316 c 0.036,-2.916 0.062,-5.863 0.165,-8.738 0.052,-1.435 0.134,-2.864 0.279,-4.216 0.072,-0.668 0.18,-1.326 0.304,-1.875 0.031,-0.145 0.067,-0.259 0.103,-0.378 0.042,-0.13 0.057,-0.161 0.114,-0.311 l 0.387,-0.979 c 1.078,-2.621 2.291,-5.263 3.529,-7.894 l 3.746,-7.889 -5.139,-2.579 z"
       fill="#e4897b"
       id="path80" />
    <path
       d="m 229.864,251.888 1.321,2.481 -4.221,1.181 c 0,0 -0.805,-1.994 0.155,-3.569 z"
       fill="#e4897b"
       id="path82" />
    <path
       d="m 232.8,257.943 -3.881,0.305 -1.955,-2.698 4.221,-1.181 z"
       fill="#e4897b"
       id="path84" />
    <path
       d="m 251.159,200.008 c 0.062,0.301 0.268,0.513 0.464,0.472 0.197,-0.042 0.305,-0.316 0.243,-0.617 -0.062,-0.3 -0.268,-0.513 -0.464,-0.471 -0.196,0.041 -0.305,0.316 -0.243,0.616 z"
       fill="#263238"
       id="path86" />
    <path
       d="m 251.396,200.526 c 0,0 1.032,1.595 1.951,2.279 -0.428,0.606 -1.378,0.56 -1.378,0.56 l -0.578,-2.844 z"
       fill="#de5753"
       id="path88" />
    <path
       d="m 249.725,198.563 c 0.046,0 0.098,-0.021 0.134,-0.057 0.536,-0.585 1.176,-0.487 1.202,-0.487 0.093,0.016 0.191,-0.052 0.206,-0.15 0.016,-0.098 -0.051,-0.192 -0.144,-0.207 -0.036,-0.005 -0.851,-0.135 -1.527,0.595 -0.067,0.073 -0.062,0.187 0.01,0.254 0.036,0.031 0.077,0.047 0.124,0.047 z"
       fill="#263238"
       id="path90" />
    <path
       d="m 242.624,204.24 c 0.542,2.781 1.089,7.883 -0.851,9.743 0,0 0.759,2.823 5.913,2.823 5.666,0 2.709,-2.823 2.709,-2.823 -3.09,-0.741 -3.013,-3.046 -2.471,-5.206 l -5.289,-4.532 z"
       fill="#e4897b"
       id="path92" />
    <path
       d="m 240.989,215.739 c -0.408,-1.362 -0.862,-2.927 0.072,-3.414 1.027,-0.538 6.636,-1.087 8.571,-0.077 1.935,1.01 1.388,3.776 1.388,3.776 z"
       fill="#263238"
       id="path94" />
    <path
       d="m 229.09,344.915 c 0.387,0 0.763,-0.062 0.908,-0.254 0.062,-0.083 0.108,-0.218 0,-0.43 -0.062,-0.109 -0.155,-0.181 -0.284,-0.212 -0.557,-0.13 -1.599,0.59 -1.646,0.621 -0.031,0.021 -0.041,0.057 -0.036,0.094 0.005,0.036 0.031,0.062 0.067,0.072 0.196,0.047 0.599,0.109 0.991,0.109 z m 0.474,-0.725 c 0.042,0 0.078,0 0.109,0.01 0.077,0.021 0.129,0.057 0.165,0.119 0.083,0.15 0.031,0.213 0.015,0.233 -0.16,0.213 -0.939,0.218 -1.501,0.119 0.325,-0.202 0.862,-0.486 1.207,-0.486 z"
       fill="#407bff"
       id="path96" />
    <path
       d="m 228.12,344.806 c 0,0 0.031,0 0.041,-0.01 0.392,-0.213 1.151,-1.047 1.073,-1.471 -0.015,-0.078 -0.072,-0.213 -0.284,-0.239 -0.134,-0.015 -0.268,0.021 -0.381,0.114 -0.439,0.363 -0.532,1.461 -0.537,1.508 0,0.031 0.015,0.062 0.041,0.083 0.016,0.01 0.031,0.015 0.047,0.015 z m 0.763,-1.543 c 0,0 0.026,0 0.042,0 0.118,0.015 0.129,0.067 0.129,0.093 0.046,0.254 -0.434,0.88 -0.826,1.176 0.046,-0.322 0.165,-0.959 0.449,-1.192 0.062,-0.052 0.134,-0.077 0.206,-0.077 z"
       fill="#407bff"
       id="path98" />
    <path
       d="m 251.851,344.915 c 0.485,0 0.954,-0.067 1.114,-0.285 0.057,-0.078 0.098,-0.207 -0.005,-0.394 -0.062,-0.103 -0.155,-0.176 -0.284,-0.212 -0.629,-0.171 -1.956,0.585 -2.012,0.616 -0.031,0.021 -0.052,0.057 -0.042,0.094 0.006,0.036 0.037,0.067 0.073,0.072 0.242,0.047 0.712,0.109 1.161,0.109 z m 0.598,-0.741 c 0.062,0 0.124,0.005 0.176,0.021 0.082,0.021 0.139,0.062 0.175,0.124 0.062,0.114 0.041,0.166 0.015,0.197 -0.17,0.238 -1.13,0.249 -1.837,0.15 0.351,-0.181 1.032,-0.497 1.471,-0.497 z"
       fill="#407bff"
       id="path100" />
    <path
       d="m 250.705,344.806 c 0,0 0.026,0 0.036,-0.005 0.459,-0.207 1.362,-1.031 1.295,-1.461 -0.015,-0.103 -0.087,-0.228 -0.335,-0.254 -0.186,-0.015 -0.351,0.032 -0.495,0.156 -0.48,0.399 -0.584,1.424 -0.589,1.466 0,0.031 0.011,0.062 0.036,0.083 0.016,0.01 0.037,0.015 0.052,0.015 z m 0.924,-1.543 c 0,0 0.036,0 0.051,0 0.16,0.015 0.171,0.082 0.176,0.103 0.041,0.259 -0.573,0.907 -1.043,1.186 0.047,-0.3 0.186,-0.911 0.501,-1.175 0.093,-0.078 0.196,-0.12 0.309,-0.12 z"
       fill="#407bff"
       id="path102" />
    <path
       d="m 246.536,344.718 h 3.792 l 0.377,-8.811 h -3.793 z"
       fill="#e4897b"
       id="path104" />
    <path
       d="m 223.775,344.718 h 3.793 l 1.904,-8.811 h -3.788 z"
       fill="#e4897b"
       id="path106" />
    <path
       d="m 227.836,344.278 h -4.257 c -0.155,0 -0.289,0.109 -0.325,0.259 l -0.748,3.382 c -0.078,0.352 0.196,0.684 0.557,0.679 1.486,-0.026 2.208,-0.114 4.081,-0.114 1.151,0 3.525,0.119 5.119,0.119 1.595,0 1.801,-1.58 1.146,-1.725 -2.921,-0.642 -4.02,-1.528 -4.954,-2.367 -0.17,-0.15 -0.387,-0.233 -0.614,-0.233 z"
       fill="#263238"
       id="path108" />
    <path
       d="m 250.303,344.278 h -4.139 c -0.155,0 -0.289,0.109 -0.325,0.259 l -0.748,3.382 c -0.077,0.352 0.186,0.684 0.547,0.679 1.491,-0.026 3.653,-0.114 5.526,-0.114 2.193,0 4.092,0.119 6.662,0.119 1.558,0 1.986,-1.58 1.336,-1.725 -2.967,-0.653 -5.387,-0.72 -7.951,-2.305 -0.279,-0.171 -0.589,-0.295 -0.914,-0.295 z"
       fill="#263238"
       id="path110" />
    <path
       d="m 252.134,220.665 c 3.215,-0.254 6.306,-0.668 9.448,-1.259 1.564,-0.3 3.132,-0.637 4.696,-1.062 1.569,-0.419 3.142,-0.901 4.726,-1.564 0.398,-0.166 0.8,-0.347 1.198,-0.539 0.5,-0.248 0.918,-0.507 1.284,-0.751 0.743,-0.492 1.383,-1.005 2.018,-1.512 1.264,-1.015 2.435,-2.072 3.596,-3.134 2.307,-2.144 4.495,-4.361 6.605,-6.692 l -1.899,-2.129 -7.487,5.402 c -1.233,0.897 -2.482,1.767 -3.71,2.59 -0.609,0.409 -1.238,0.793 -1.806,1.119 -0.289,0.166 -0.547,0.285 -0.743,0.368 -0.304,0.119 -0.619,0.238 -0.944,0.347 -2.621,0.875 -5.583,1.44 -8.53,1.916 -2.946,0.467 -5.99,0.855 -8.932,1.161 l 0.47,5.749 z"
       fill="#e4897b"
       id="path112" />
    <path
       d="m 234.982,214.843 c -3.555,0.818 -7.146,11.245 -7.146,11.245 l 7.312,5.268 c 0,0 2.043,-4.859 4.05,-9.106 2.105,-4.45 -0.588,-8.241 -4.221,-7.407 z"
       fill="#407bff"
       id="path114" />
    <path
       opacity="0.4"
       d="m 234.982,214.843 c -3.555,0.818 -7.146,11.245 -7.146,11.245 l 7.312,5.268 c 0,0 2.043,-4.859 4.05,-9.106 2.105,-4.45 -0.588,-8.241 -4.221,-7.407 z"
       fill="#000000"
       id="path116" />
    <path
       d="m 237.031,220.54 1.45,3.258 c -1.502,3.253 -2.874,6.475 -3.241,7.335 0.052,-3.849 0.78,-8.624 1.791,-10.593 z"
       fill="#407bff"
       id="path118" />
    <path
       opacity="0.6"
       d="m 237.031,220.54 1.45,3.258 c -1.502,3.253 -2.874,6.475 -3.241,7.335 0.052,-3.849 0.78,-8.624 1.791,-10.593 z"
       fill="#000000"
       id="path120" />
    <path
       d="m 256.216,215.04 c 0,0 4.035,4.573 0.222,32.891 h -20.274 c -0.139,-3.124 1.816,-18.368 -1.187,-33.088 0,0 3.478,-0.699 6.786,-0.86 2.59,-0.124 6.341,-0.207 8.617,0 3.003,0.274 5.831,1.057 5.831,1.057 z"
       fill="#407bff"
       id="path122" />
    <path
       opacity="0.4"
       d="m 256.216,215.04 c 0,0 4.035,4.573 0.222,32.891 h -20.274 c -0.139,-3.124 1.816,-18.368 -1.187,-33.088 0,0 3.478,-0.699 6.786,-0.86 2.59,-0.124 6.341,-0.207 8.617,0 3.003,0.274 5.831,1.057 5.831,1.057 z"
       fill="#000000"
       id="path124" />
    <path
       d="m 257.717,220.54 c 0.135,1.073 0.238,2.342 0.305,3.839 -1.677,-0.524 -3.762,-1.363 -5.645,-2.663 z"
       fill="#407bff"
       id="path126" />
    <path
       opacity="0.6"
       d="m 257.717,220.54 c 0.135,1.073 0.238,2.342 0.305,3.839 -1.677,-0.524 -3.762,-1.363 -5.645,-2.663 z"
       fill="#000000"
       id="path128" />
    <path
       d="m 249.043,221.095 c 2.715,2.413 13.076,2.17 13.076,2.17 l 0.34,-10.054 c 0,0 -5.872,0.865 -10.562,0.767 -5.79,-0.119 -5.831,4.47 -2.854,7.117 z"
       fill="#407bff"
       id="path130" />
    <path
       opacity="0.4"
       d="m 249.043,221.095 c 2.715,2.413 13.076,2.17 13.076,2.17 l 0.34,-10.054 c 0,0 -5.872,0.865 -10.562,0.767 -5.79,-0.119 -5.831,4.47 -2.854,7.117 z"
       fill="#000000"
       id="path132" />
    <path
       d="m 283.719,202.07 2.6,-3.051 2.776,3.087 c 0,0 -1.708,2.89 -4.432,2.434 z"
       fill="#e4897b"
       id="path134" />
    <path
       d="m 289.993,195.46 1.001,3.978 -1.893,2.668 -2.782,-3.087 z"
       fill="#e4897b"
       id="path136" />
    <path
       d="m 250.705,335.907 -0.196,4.543 h -3.793 l 0.196,-4.543 z"
       fill="#ce6f64"
       id="path138" />
    <path
       d="m 225.679,335.907 h 3.793 l -0.981,4.543 h -3.792 z"
       fill="#ce6f64"
       id="path140" />
    <path
       d="m 248.424,196.227 c 3.401,-1.58 4.474,-8.464 -5.304,-6.759 0,0 1.476,1.641 -1.522,2.677 -2.993,1.036 -0.491,7.475 6.826,4.082 z"
       fill="#263238"
       id="path142" />
    <path
       d="m 241.035,201.412 c 0.975,3.646 1.357,5.832 3.602,7.35 3.374,2.279 7.575,-0.337 7.704,-4.201 0.118,-3.481 -1.497,-8.862 -5.392,-9.598 -3.845,-0.725 -6.884,2.802 -5.914,6.449 z"
       fill="#e4897b"
       id="path144" />
    <path
       d="m 243.249,191.322 c -2.317,1.3 -5.454,2.077 -5.14,3.916 0.387,2.253 -1.898,0.844 -1.367,4.2 0.346,2.191 4.376,8.832 7.209,8.505 4.262,-0.486 3.72,-7.018 3.735,-10.452 0.011,-2.025 0.104,-8.718 -4.437,-6.169 z"
       fill="#263238"
       id="path146" />
    <path
       d="m 248.197,194.233 c 1.032,0.243 2.4,6.215 -1.599,6.764 -4.603,0.632 1.599,-6.764 1.599,-6.764 z"
       fill="#263238"
       id="path148" />
    <path
       d="m 248.094,196.351 c 1.264,0.114 4.118,-1.414 3.777,-3.714 0,0 -1.816,2.689 -3.777,3.714 z"
       fill="#263238"
       id="path150" />
    <path
       d="m 246.216,201.474 c 0.397,0.906 1.145,1.616 1.868,1.999 1.088,0.57 1.703,-0.264 1.455,-1.357 -0.222,-0.984 -1.058,-2.47 -2.178,-2.59 -1.104,-0.119 -1.599,0.917 -1.145,1.953 z"
       fill="#e4897b"
       id="path152" />
    <path
       d="m 240.54,197.258 c -0.764,-0.394 -2.508,-1.28 -2.988,-3.792 0,0 -1.703,4.776 2.988,3.792 z"
       fill="#263238"
       id="path154" />
    <path
       d="m 236.236,197.206 c 0.382,-0.223 1.249,-0.736 2.472,-0.243 0,0 -1.589,-2.067 -2.472,0.243 z"
       fill="#263238"
       id="path156" />
    <path
       d="m 249.25,247.925 c 0,0 -4.304,29.079 -6.662,39.977 -2.585,11.929 -12.327,51.673 -12.327,51.673 h -6.945 c 0,0 6.424,-38.775 7.9,-50.59 1.599,-12.82 4.953,-41.054 4.953,-41.054 h 13.081 z"
       fill="#407bff"
       id="path158" />
    <path
       opacity="0.5"
       d="m 249.25,247.925 c 0,0 -4.304,29.079 -6.662,39.977 -2.585,11.929 -12.327,51.673 -12.327,51.673 h -6.945 c 0,0 6.424,-38.775 7.9,-50.59 1.599,-12.82 4.953,-41.054 4.953,-41.054 h 13.081 z"
       fill="#ffffff"
       id="path160" />
    <path
       d="m 231.365,337.005 c 0.031,0 -0.717,2.678 -0.717,2.678 h -7.812 l 0.144,-2.387 z"
       fill="#407bff"
       id="path162" />
    <path
       opacity="0.1"
       d="m 231.365,337.005 c 0.031,0 -0.717,2.678 -0.717,2.678 h -7.812 l 0.144,-2.387 z"
       fill="#000000"
       id="path164" />
    <path
       d="m 246.531,258.29 c -4.975,0.979 -4.448,19.6 -3.85,29.177 1.435,-6.77 3.535,-19.797 4.969,-29.042 -0.33,-0.166 -0.701,-0.218 -1.119,-0.135 z"
       fill="#407bff"
       id="path166" />
    <path
       opacity="0.4"
       d="m 246.531,258.29 c -4.975,0.979 -4.448,19.6 -3.85,29.177 1.435,-6.77 3.535,-19.797 4.969,-29.042 -0.33,-0.166 -0.701,-0.218 -1.119,-0.135 z"
       fill="#ffffff"
       id="path168" />
    <path
       d="m 256.443,247.925 c 0,0 0.521,28.452 0.108,40.055 -0.428,12.068 -4.628,51.589 -4.628,51.589 h -6.419 c 0,0 -0.238,-38.816 -0.521,-50.667 -0.31,-12.924 -1.868,-40.977 -1.868,-40.977 z"
       fill="#407bff"
       id="path170" />
    <path
       opacity="0.5"
       d="m 256.443,247.925 c 0,0 0.521,28.452 0.108,40.055 -0.428,12.068 -4.628,51.589 -4.628,51.589 h -6.419 c 0,0 -0.238,-38.816 -0.521,-50.667 -0.31,-12.924 -1.868,-40.977 -1.868,-40.977 z"
       fill="#ffffff"
       id="path172" />
    <path
       d="m 250.586,334.939 c 0.031,0 0.062,-0.026 0.062,-0.057 1.13,-10.94 3.803,-37.403 4.139,-46.897 0.345,-9.691 0.031,-31.435 -0.073,-37.869 0,-0.036 -0.031,-0.062 -0.062,-0.062 -0.036,0 -0.062,0.031 -0.062,0.068 0.104,6.433 0.418,28.172 0.073,37.863 -0.336,9.489 -3.009,35.952 -4.139,46.892 0,0.036 0.021,0.067 0.057,0.072 0,0 0,0 0.005,0 z"
       fill="#407bff"
       id="path174" />
    <path
       opacity="0.4"
       d="m 250.586,334.939 c 0.031,0 0.062,-0.026 0.062,-0.057 1.13,-10.94 3.803,-37.403 4.139,-46.897 0.345,-9.691 0.031,-31.435 -0.073,-37.869 0,-0.036 -0.031,-0.062 -0.062,-0.062 -0.036,0 -0.062,0.031 -0.062,0.068 0.104,6.433 0.418,28.172 0.073,37.863 -0.336,9.489 -3.009,35.952 -4.139,46.892 0,0.036 0.021,0.067 0.057,0.072 0,0 0,0 0.005,0 z"
       fill="#ffffff"
       id="path176" />
    <path
       d="m 253.161,337.005 c 0.031,0 -0.361,2.678 -0.361,2.678 h -7.812 l -0.212,-2.387 z"
       fill="#407bff"
       id="path178" />
    <path
       opacity="0.1"
       d="m 253.161,337.005 c 0.031,0 -0.361,2.678 -0.361,2.678 h -7.812 l -0.212,-2.387 z"
       fill="#000000"
       id="path180" />
  </g>
  <defs
     id="defs193">
    <clipPath
       id="clip0_25_2">
      <rect
         width="258"
         height="193"
         fill="#ffffff"
         transform="matrix(-1,0,0,1,425.5,161)"
         id="rect190"
         x="0"
         y="0" />
    </clipPath>
  </defs>
</svg>
